<svg width="24" height="24" viewBox="0 0 24 24" fill="none" xmlns="http://www.w3.org/2000/svg">
<path d="M18.6502 2.85L19.2602 6.71L22.7702 8.5L21.0002 12L22.7802 15.5L19.2402 17.29L18.6302 21.15L14.7402 20.54L11.9702 23.3L9.19021 20.5L5.33021 21.14L4.71021 17.25L1.22021 15.47L3.00021 11.97L1.23021 8.5L4.74021 6.69L5.35021 2.86L9.22021 3.5L12.0002 0.690002L14.7702 3.46L18.6502 2.85ZM9.50021 7C9.10239 7 8.72086 7.15804 8.43955 7.43934C8.15825 7.72065 8.00021 8.10218 8.00021 8.5C8.00021 8.89783 8.15825 9.27936 8.43955 9.56066C8.72086 9.84197 9.10239 10 9.50021 10C9.89804 10 10.2796 9.84197 10.5609 9.56066C10.8422 9.27936 11.0002 8.89783 11.0002 8.5C11.0002 8.10218 10.8422 7.72065 10.5609 7.43934C10.2796 7.15804 9.89804 7 9.50021 7ZM14.5002 14C14.1024 14 13.7209 14.158 13.4396 14.4393C13.1582 14.7206 13.0002 15.1022 13.0002 15.5C13.0002 15.8978 13.1582 16.2794 13.4396 16.5607C13.7209 16.842 14.1024 17 14.5002 17C14.898 17 15.2796 16.842 15.5609 16.5607C15.8422 16.2794 16.0002 15.8978 16.0002 15.5C16.0002 15.1022 15.8422 14.7206 15.5609 14.4393C15.2796 14.158 14.898 14 14.5002 14ZM8.41021 17L17.0002 8.41L15.5902 7L7.00021 15.59L8.41021 17Z" fill="#FEB200"/>
</svg>
