<svg width="44" height="44" viewBox="0 0 44 44" fill="none" xmlns="http://www.w3.org/2000/svg">
<path d="M30.7127 17.8722L27.7891 35.1162C27.7433 35.3636 27.6113 35.5874 27.4161 35.7488C27.2208 35.9102 26.9746 35.9991 26.72 36H13.28C13.0254 35.9991 12.7792 35.9102 12.5839 35.7488C12.3887 35.5874 12.2567 35.3636 12.2109 35.1162L9.28727 17.8722C9.26209 17.7187 9.27081 17.5617 9.31285 17.4119C9.35488 17.262 9.42923 17.123 9.53079 17.0042C9.63235 16.8854 9.75872 16.7898 9.90123 16.7238C10.0437 16.6579 10.199 16.6231 10.3564 16.622H29.6218C29.781 16.62 29.9388 16.6524 30.0839 16.717C30.2291 16.7816 30.3582 16.8768 30.4622 16.996C30.5661 17.1151 30.6424 17.2553 30.6857 17.4067C30.729 17.558 30.7382 17.7169 30.7127 17.8722ZM32 13.3888C32 13.6746 31.8851 13.9487 31.6805 14.1508C31.4759 14.353 31.1984 14.4665 30.9091 14.4665H9.09091C8.80158 14.4665 8.52411 14.353 8.31952 14.1508C8.11493 13.9487 8 13.6746 8 13.3888C8 13.1029 8.11493 12.8288 8.31952 12.6267C8.52411 12.4246 8.80158 12.311 9.09091 12.311H14.5455V9.07775C14.5455 8.79191 14.6604 8.51778 14.865 8.31567C15.0696 8.11355 15.347 8 15.6364 8H24.3636C24.653 8 24.9304 8.11355 25.135 8.31567C25.3396 8.51778 25.4545 8.79191 25.4545 9.07775V12.311H30.9091C31.1984 12.311 31.4759 12.4246 31.6805 12.6267C31.8851 12.8288 32 13.1029 32 13.3888ZM23.2727 12.311V10.1555H16.7273V12.311H23.2727Z" fill="#32A13C"/>
</svg>
